<?xml version="1.0" encoding="utf-8"?>
<!-- Generator: Adobe Illustrator 24.3.0, SVG Export Plug-In . SVG Version: 6.00 Build 0)  -->
<!DOCTYPE svg PUBLIC "-//W3C//DTD SVG 1.1//EN" "http://www.w3.org/Graphics/SVG/1.1/DTD/svg11.dtd" [
	<!ENTITY ns_extend "http://ns.adobe.com/Extensibility/1.0/">
	<!ENTITY ns_ai "http://ns.adobe.com/AdobeIllustrator/10.0/">
	<!ENTITY ns_graphs "http://ns.adobe.com/Graphs/1.0/">
	<!ENTITY ns_vars "http://ns.adobe.com/Variables/1.0/">
	<!ENTITY ns_imrep "http://ns.adobe.com/ImageReplacement/1.0/">
	<!ENTITY ns_sfw "http://ns.adobe.com/SaveForWeb/1.0/">
	<!ENTITY ns_custom "http://ns.adobe.com/GenericCustomNamespace/1.0/">
	<!ENTITY ns_adobe_xpath "http://ns.adobe.com/XPath/1.0/">
]>
<svg version="1.1" id="Layer_1" xmlns:x="&ns_extend;" xmlns:i="&ns_ai;" xmlns:graph="&ns_graphs;"
	 xmlns="http://www.w3.org/2000/svg" xmlns:xlink="http://www.w3.org/1999/xlink" x="0px" y="0px" viewBox="0 0 81 91"
	 style="enable-background:new 0 0 81 91;" xml:space="preserve">
<metadata>
	<sfw  xmlns="&ns_sfw;">
		<slices></slices>
		<sliceSourceBounds  bottomLeftOrigin="true" height="91" width="80.9" x="0" y="0"></sliceSourceBounds>
	</sfw>
</metadata>
<g>
	<path d="M77.4,1.9L67,12.3v11.8l10.4-10.4V1.9z M70,18.3h-0.5v0.5h-0.4v-0.5h-0.5v-0.4h0.5v-0.5h0.4v0.5H70V18.3z M70,15.8h-0.5
		v0.5h-0.4v-0.5h-0.5v-0.4h0.5v-0.5h0.4v0.5H70V15.8z M70,13.4h-0.5v0.5h-0.4v-0.5h-0.5v-0.4h0.5v-0.5h0.4v0.5H70V13.4z"/>
	<path d="M25.5,51.6c-1.1,1.2-1.1,3,0,4.2c0.6,0.6,1.3,0.9,2.1,0.9c0.8,0,1.5-0.3,2.1-0.9l-1.4-1.4c-0.4,0.4-1,0.4-1.4,0
		c-0.4-0.4-0.4-1,0-1.4L25.5,51.6z"/>
	<path d="M30.7,56.7l-0.5-0.5c-1.4,1.4-3.7,1.4-5.1,0c-0.7-0.7-1.1-1.6-1.1-2.6s0.4-1.9,1.1-2.6l-0.5-0.5c-0.8,0.8-1.3,1.9-1.3,3.1
		s0.4,2.2,1.3,3.1c0.8,0.8,1.9,1.3,3,1.3S29.8,57.6,30.7,56.7z"/>
	<path d="M32.9,79.3L13.6,60V65l19.2,19.3V79.3z"/>
	<path d="M32.9,85.3L20.1,72.6v2.2l12.7,12.8V85.3z"/>
	<path d="M14,12.3L3.6,1.9v6.7H7V9H3.6v1.3H7v0.4H3.6V12H7v0.4H3.6v1.3L14,24.1V12.3z"/>
	<path d="M3.6,19.6l7.4,7.4v-4.8l-7.4-7.4V19.6z"/>
	<path d="M20.7,18.4l-5.9-5.9v11.8h0L20.7,18.4z"/>
	<path d="M14,25.1l-2.4-2.4v4.8h0L14,25.1z"/>
	<path d="M40.5,85.2c0.9,0,1.6-0.7,1.6-1.6c0-0.9-0.7-1.6-1.6-1.6s-1.6,0.7-1.6,1.6C38.9,84.5,39.6,85.2,40.5,85.2z"/>
	<path d="M34.5,83.9h-0.9V91h0.9V83.9z"/>
	<path d="M36.3,83.9h-0.9V91h0.9V83.9z"/>
	<path d="M37.3,52.7l-9.2,9.2v2.1l9.2-9.2V52.7z"/>
	<path d="M37.3,55.8L28.2,65v0.7l9.2-9.2V55.8z"/>
	<path d="M37.3,57.4l-9.2,9.2v0.7l9.2-9.2V57.4z"/>
	<path d="M37.3,58.9l-9.2,9.2v0.7l9.2-9.2V58.9z"/>
	<path d="M37.3,60.5l-9.2,9.2v0.7l9.2-9.2V60.5z"/>
	<path d="M37.3,62l-9.2,9.2v0.7l9.2-9.2V62z"/>
	<path d="M37.3,63.5l-9.2,9.2v0.7l9.2-9.2V63.5z"/>
	<path d="M40.1,62.7l-6.6,6.8v9.4l6.6-6.8V62.7z"/>
	<path d="M40.1,50.1l-2.2,2.3v11.8l2.2-2.3V50.1z"/>
	<path d="M40,49.1H24l8,8.1L40,49.1L40,49.1z"/>
	<path d="M27.6,72.9v-11l-5.5,5.5L27.6,72.9L27.6,72.9z"/>
	<path d="M33,78.3v-8.6l-4.3,4.3L33,78.3L33,78.3z"/>
	<path d="M0,66.5l40.2-40.4v-3.6L0,62.9V66.5z"/>
	<path d="M40.2,28.1L0,68.5v3.6l40.2-40.4V28.1z"/>
	<path d="M5.7,77.3L19,90.8v-3.6L5.7,73.7V77.3z"/>
	<path d="M5.7,71.7L19,85.2v-3.6L5.7,68.1V71.7z"/>
	<path d="M0,60.8l40.2-40.4v-3.6L0,57.3V60.8z"/>
	<path d="M0,55.2l40.2-40.4v-3.6L0,51.6V55.2z"/>
	<path d="M0,49.6L40.2,9.2V5.6L0,46V49.6z"/>
	<path d="M0,44L40.2,3.6V0L0,40.4V44z"/>
	<path d="M42.7,91c0.3,0,0.5-0.2,0.5-0.5c0-0.3-0.2-0.5-0.5-0.5s-0.5,0.2-0.5,0.5C42.3,90.8,42.5,91,42.7,91z"/>
	<path d="M42.7,89.6c0.3,0,0.5-0.2,0.5-0.5c0-0.3-0.2-0.5-0.5-0.5s-0.5,0.2-0.5,0.5C42.3,89.3,42.5,89.6,42.7,89.6z"/>
	<path d="M41.3,90c-0.3,0-0.5,0.2-0.5,0.5c0,0.3,0.2,0.5,0.5,0.5s0.5-0.2,0.5-0.5C41.8,90.2,41.5,90,41.3,90z"/>
	<path d="M41.3,88.6c-0.3,0-0.5,0.2-0.5,0.5c0,0.3,0.2,0.5,0.5,0.5s0.5-0.2,0.5-0.5C41.8,88.8,41.5,88.6,41.3,88.6z"/>
	<path d="M39.8,90c-0.3,0-0.5,0.2-0.5,0.5c0,0.3,0.2,0.5,0.5,0.5s0.5-0.2,0.5-0.5C40.3,90.2,40.1,90,39.8,90z"/>
	<path d="M39.8,88.6c-0.3,0-0.5,0.2-0.5,0.5c0,0.3,0.2,0.5,0.5,0.5s0.5-0.2,0.5-0.5C40.3,88.8,40.1,88.6,39.8,88.6z"/>
	<path d="M42.7,88.2c0.3,0,0.5-0.2,0.5-0.5c0-0.3-0.2-0.5-0.5-0.5s-0.5,0.2-0.5,0.5C42.3,88,42.5,88.2,42.7,88.2z"/>
	<path d="M42.7,86.8c0.3,0,0.5-0.2,0.5-0.5c0-0.3-0.2-0.5-0.5-0.5s-0.5,0.2-0.5,0.5C42.3,86.6,42.5,86.8,42.7,86.8z"/>
	<path d="M41.3,87.2c-0.3,0-0.5,0.2-0.5,0.5c0,0.3,0.2,0.5,0.5,0.5s0.5-0.2,0.5-0.5C41.8,87.5,41.5,87.2,41.3,87.2z"/>
	<path d="M41.3,85.8c-0.3,0-0.5,0.2-0.5,0.5c0,0.3,0.2,0.5,0.5,0.5s0.5-0.2,0.5-0.5C41.8,86,41.5,85.8,41.3,85.8z"/>
	<path d="M39.8,88.2c0.3,0,0.5-0.2,0.5-0.5c0-0.3-0.2-0.5-0.5-0.5c-0.3,0-0.5,0.2-0.5,0.5C39.4,88,39.6,88.2,39.8,88.2z"/>
	<path d="M39.8,86.8c0.3,0,0.5-0.2,0.5-0.5c0-0.3-0.2-0.5-0.5-0.5c-0.3,0-0.5,0.2-0.5,0.5C39.4,86.6,39.6,86.8,39.8,86.8z"/>
	<path d="M38.4,90c-0.3,0-0.5,0.2-0.5,0.5c0,0.3,0.2,0.5,0.5,0.5c0.3,0,0.5-0.2,0.5-0.5C38.9,90.2,38.7,90,38.4,90z"/>
	<path d="M38.4,88.6c-0.3,0-0.5,0.2-0.5,0.5c0,0.3,0.2,0.5,0.5,0.5c0.3,0,0.5-0.2,0.5-0.5C38.9,88.8,38.7,88.6,38.4,88.6z"/>
	<path d="M38.4,87.2c-0.3,0-0.5,0.2-0.5,0.5c0,0.3,0.2,0.5,0.5,0.5c0.3,0,0.5-0.2,0.5-0.5C38.9,87.5,38.7,87.2,38.4,87.2z"/>
	<path d="M38.4,85.8c-0.3,0-0.5,0.2-0.5,0.5c0,0.3,0.2,0.5,0.5,0.5c0.3,0,0.5-0.2,0.5-0.5C38.9,86,38.7,85.8,38.4,85.8z"/>
	<path d="M40.5,76.2c-3.8,0-6.9,3.1-6.9,6.9h4.3c0-1.4,1.1-2.6,2.6-2.6c1.4,0,2.6,1.2,2.6,2.6h4.3C47.4,79.3,44.3,76.2,40.5,76.2z"
		/>
	<path d="M15.1,58.2l-0.9,0.9l7.5,7.6l0.9-0.9L15.1,58.2z"/>
	<path d="M16.7,56.6l-0.9,0.9l7.5,7.6l0.9-0.9L16.7,56.6z"/>
	<path d="M18.3,55l-0.9,0.9l7.5,7.6l0.9-0.9L18.3,55z"/>
	<path d="M4.5,77.3L4.5,77.3l0.1-8l-4,4L4.5,77.3z"/>
	<path d="M12.6,73.7L12.7,61l-6.4,6.3L12.6,73.7L12.6,73.7z"/>
	<path d="M74.5,67.3L68.2,61l0.1,12.7h0L74.5,67.3z"/>
	<path d="M52.6,54.3l-1.4,1.4c0.6,0.6,1.3,0.8,2,0.8c0.7,0,1.5-0.3,2-0.8c1.1-1.1,1.1-3,0-4.1l-1.4,1.4c0.4,0.4,0.4,0.9,0,1.3
		C53.6,54.7,53,54.7,52.6,54.3z"/>
	<path d="M55.7,51.1c1.4,1.4,1.4,3.6,0,5c-1.4,1.4-3.6,1.4-5,0l-0.5,0.5c0.8,0.8,1.9,1.2,3,1.2c1.1,0,2.2-0.4,3-1.2
		c1.6-1.7,1.6-4.4,0-6L55.7,51.1z"/>
	<path d="M67.3,60L48,79.3v5.1L67.3,65V60z"/>
	<path d="M60.7,72.6L48,85.3v2.2l12.7-12.8V72.6z"/>
	<path d="M77.4,14.8l-7.4,7.4V27l7.4-7.4V14.8z"/>
	<path d="M66.1,24.3L66.1,24.3l0-11.8l-5.9,5.9L66.1,24.3z"/>
	<path d="M69.3,27.5v-4.8l-2.4,2.4L69.3,27.5z"/>
	<path d="M47.2,83.9h-0.9V91h0.9V83.9z"/>
	<path d="M45.5,83.9h-0.9V91h0.9V83.9z"/>
	<path d="M52.7,61.9l-9.2-9.2v2.1l9.2,9.2V61.9z"/>
	<path d="M43.5,56.5l9.2,9.2V65l-9.2-9.2V56.5z"/>
	<path d="M43.5,58l9.2,9.2v-0.7l-9.2-9.2V58z"/>
	<path d="M43.5,59.6l9.2,9.2v-0.7l-9.2-9.2V59.6z"/>
	<path d="M43.5,61.1l9.2,9.2v-0.7l-9.2-9.2V61.1z"/>
	<path d="M43.5,62.7l9.2,9.2v-0.7L43.5,62V62.7z"/>
	<path d="M52.7,72.7l-9.2-9.2v0.7l9.2,9.2V72.7z"/>
	<path d="M47.4,69.5l-6.6-6.8v5.1l6.6,6.8V69.5z"/>
	<path d="M40.8,72.1l6.6,6.7v-3.6l-6.6-6.8V72.1z"/>
	<path d="M40.8,50.1v11.8l2.2,2.3V52.4L40.8,50.1z"/>
	<path d="M40.5,41.4c-0.8,0-1.5,0.7-1.5,1.5c0,0.8,0.7,1.5,1.5,1.5c0.8,0,1.5-0.7,1.5-1.5C41.9,42.1,41.3,41.4,40.5,41.4z"/>
	<path d="M40.5,33.1L25.3,48.4h30.3v-0.1L40.5,33.1z M40.5,44.8c-1.1,0-1.9-0.9-1.9-1.9c0-1.1,0.9-1.9,1.9-1.9
		c1.1,0,1.9,0.9,1.9,1.9C42.4,43.9,41.5,44.8,40.5,44.8z M42.4,39.5h-4v-0.3h4V39.5z M42.4,38.3h-4V38h4V38.3z M42.4,37h-4v-0.3h4
		V37z"/>
	<path d="M40.9,49.1l8,8l8-8.1L40.9,49.1L40.9,49.1z"/>
	<path d="M53.3,61.9v11h0l5.4-5.5L53.3,61.9z"/>
	<path d="M52.2,74.1l-4.3-4.3v8.6h0L52.2,74.1z"/>
	<path d="M80.9,62.9L40.7,22.5v3.6l40.2,40.4V62.9z"/>
	<path d="M80.9,68.5L40.7,28.1v3.6l40.2,40.4V68.5z"/>
	<path d="M75.2,73.7L61.8,87.3v3.6l13.3-13.6V73.7z"/>
	<path d="M75.2,68.1L61.8,81.7v3.6l13.3-13.6V68.1z"/>
	<path d="M80.9,57.3L40.7,16.9v3.6l40.2,40.4V57.3z"/>
	<path d="M80.9,51.6L40.7,11.2v3.6l40.2,40.4V51.6z"/>
	<path d="M80.9,46L40.7,5.6v3.6l40.2,40.4V46z"/>
	<path d="M80.9,40.4L40.7,0v3.6L80.9,44V40.4z"/>
	<path d="M65.8,58.2l-7.5,7.6l0.9,0.9l7.5-7.6L65.8,58.2z"/>
	<path d="M64.2,56.6l-7.5,7.6l0.9,0.9l7.5-7.6L64.2,56.6z"/>
	<path d="M62.6,55l-7.5,7.6l0.9,0.9l7.5-7.6L62.6,55z"/>
	<path d="M76.4,77.3l3.9-4l-4-4L76.4,77.3L76.4,77.3z"/>
</g>
</svg>
